<?xml version="1.0" encoding="UTF-8"?>
<!DOCTYPE svg PUBLIC "-//W3C//DTD SVG 1.1//EN" "http://www.w3.org/Graphics/SVG/1.1/DTD/svg11.dtd">
<!-- Creator: CorelDRAW 2020 (64-Bit) -->
<svg xmlns="http://www.w3.org/2000/svg" xml:space="preserve" width="5.63976in" height="5.63976in" version="1.1" shape-rendering="geometricPrecision" text-rendering="geometricPrecision" image-rendering="optimizeQuality" fill-rule="evenodd" clip-rule="evenodd"
viewBox="0 0 1951.55 1951.55"
 xmlns:xlink="http://www.w3.org/1999/xlink"
 xmlns:xodm="http://www.corel.com/coreldraw/odm/2003">
 <g id="Layer_x0020_1">
  <metadata id="CorelCorpID_0Corel-Layer"/>
  <rect fill="white" width="1951.55" height="1951.55" rx="224.79" ry="224.79"/>
  <path fill="#0565A9" d="M741.72 991.65l55.85 1.81c-3.22,14.49 -52.39,121.86 -61.86,140.26l31.55 -119.71c-8.64,-10.7 -18.45,-11.95 -25.54,-22.36zm659.53 110.86c1.15,4.03 25.1,44.8 34.58,70.45 28.99,78.46 55.56,165.03 74.62,245.67 1.7,-41.7 -57.27,-292.2 -90,-324.7 -10.48,2.74 -11.08,4.82 -19.2,8.57zm-1048.64 549.74c16.46,-9.76 24.88,-19.14 24.88,-29.86 0,-12.63 -9.76,-17.03 -29.86,-17.03l-70.62 0 0 5.36c5.93,0.38 9,4.4 9,11.87l0 92.06c0,7.46 -3.06,11.67 -9,12.06l0 5.36 62.01 0c31.77,0 47.08,-10.14 47.08,-34.26 0,-18.56 -11.48,-34.64 -33.49,-45.55zm-32.92 15.12c6.32,-2.1 12.82,-4.98 19.52,-8.8 7.65,7.08 12.06,17.61 12.06,28.71 0,20.29 -8.42,31.77 -22.01,31.77 -8.04,0 -9.57,-4.78 -9.57,-15.5l0 -36.17zm0 -12.44l0 -25.26c0,-9.57 2.87,-12.44 13.01,-12.44 9,0 13.78,3.83 13.78,11.1 0,9.76 -9.38,20.48 -26.79,26.6zm80.57 -49.57l0 5.36c5.93,0.38 9,4.4 9,11.87l0 92.06c0,7.46 -3.06,11.67 -9,12.06l0 5.36 51.48 0 0 -5.36c-5.93,-0.38 -8.8,-4.4 -8.8,-12.06l0 -92.06c0,-7.46 2.87,-11.48 8.8,-11.87l0 -5.36 -51.48 0zm69.28 0l0 5.36c5.93,0.38 8.8,4.4 8.8,11.87l0 92.06c0,7.46 -2.87,11.67 -8.8,12.06l0 5.36 35.79 0 0 -5.36c-5.93,-0.38 -8.8,-4.4 -8.8,-12.06l0 -90.53 49.95 65.84c4.21,5.74 7.46,9.95 7.46,19.52l0 5.17c0,7.46 -2.87,11.67 -8.8,12.06l0 5.36 35.79 0 0 -5.36c-5.93,-0.38 -8.8,-4.4 -8.8,-12.06l0 -92.06c0,-7.46 2.87,-11.48 8.8,-11.87l0 -5.36 -34.07 0 0 5.36c5.93,0.38 8.8,4.4 8.8,11.87l0 28.71 -25.26 -32.92c-1.34,-1.72 -1.91,-3.25 -1.91,-4.78 0,-1.72 0.96,-2.49 3.25,-2.87l0 -5.36 -62.2 0zm128.42 -3.06l-6.51 41.18 2.1 0.57c4.98,-17.26 15.31,-26.64 30.24,-27.21l0 97.8c0,7.46 -3.06,11.67 -9,12.06l0 5.36 51.48 0 0 -5.36c-5.93,-0.38 -8.8,-4.4 -8.8,-12.06l0 -97.8c14.93,0.57 25.07,9.95 30.05,27.21l2.11 -0.57 -6.51 -41.18c-2.3,2.87 -4.98,3.06 -8.8,3.06l-67.56 0c-3.83,0 -6.51,-0.38 -8.8,-3.06zm118.47 3.06l0 5.36c2.49,0 4.02,1.53 4.02,4.02 0,1.34 -0.77,4.02 -1.91,8.23l-23.92 82.11c-4.02,13.4 -6.32,20.86 -13.4,21.63l0 5.36 34.07 0 0 -5.36c-4.98,-0.38 -7.46,-2.68 -7.46,-7.65 0,-3.25 0.77,-6.32 1.53,-9l7.85 -28.9c22.77,0.77 38.47,17.42 38.47,36.56 0,6.12 -2.3,8.99 -6.7,8.99l0 5.36 49 0 0 -5.36c-6.12,-0.38 -7.46,-4.98 -9.76,-13.78l-23.16 -90.34c-0.77,-3.25 -1.34,-5.74 -1.34,-7.27 0,-2.87 1.34,-4.59 3.83,-4.59l0 -5.36 -51.1 0zm16.27 17.61l14.16 56.46c-6.13,-6.7 -14.55,-9.95 -25.65,-9.95 -0.38,0 -0.57,0 -0.96,0l12.44 -46.51zm71.39 -17.61l0 5.36c5.93,0.38 8.8,4.4 8.8,11.87l0 92.06c0,7.46 -2.87,11.67 -8.8,12.06l0 5.36 35.79 0 0 -5.36c-5.93,-0.38 -8.8,-4.4 -8.8,-12.06l0 -90.53 49.95 65.84c4.21,5.74 7.46,9.95 7.46,19.52l0 5.17c0,7.46 -2.87,11.67 -8.8,12.06l0 5.36 35.79 0 0 -5.36c-5.93,-0.38 -8.8,-4.4 -8.8,-12.06l0 -92.06c0,-7.46 2.87,-11.48 8.8,-11.87l0 -5.36 -34.07 0 0 5.36c5.93,0.38 8.8,4.4 8.8,11.87l0 28.71 -25.26 -32.92c-1.34,-1.72 -1.91,-3.25 -1.91,-4.78 0,-1.72 0.96,-2.49 3.25,-2.87l0 -5.36 -62.2 0zm225.45 -1.53c-1.34,2.68 -4.02,3.64 -8.23,3.64 -5.36,0 -14.93,-4.21 -29.28,-4.21 -19.14,0 -34.07,5.74 -45.36,17.22 -11.48,11.68 -17.22,26.79 -17.22,44.98 0,26.22 11.87,47.47 32.54,58.95 12.44,6.89 27.94,7.65 47.27,7.65l42.11 0 0 -5.36c-5.93,-0.38 -8.8,-4.4 -8.8,-12.06l0 -40.77c0,-7.46 2.87,-11.48 8.8,-11.87l0 -5.36 -51.48 0 0 5.36c5.93,0.38 9,4.4 9,11.87l0 30.05c0,10.53 -1.72,15.31 -10.33,15.31 -18.37,0 -33.11,-21.44 -33.11,-58.37 0,-28.33 12.82,-44.4 32.92,-44.4 15.69,0 27.56,10.72 33.11,30.43l2.1 -0.19 -4.02 -42.87zm79.62 1.53l0 5.36c6.89,0.38 7.08,4.4 8.42,12.44l14.74 93.97c0.38,2.11 0.57,4.02 0.57,5.36 0,2.87 -1.34,4.02 -4.21,4.21l0 5.36 39.81 0 0 -5.36c-2.3,-0.19 -3.64,-1.72 -3.64,-4.4 0,-0.96 0.19,-3.44 0.96,-7.65l13.59 -81.15 10.91 81.91c0.38,3.25 0.38,5.17 0.38,6.12 0,3.06 -1.15,4.78 -3.83,5.17l0 5.36 41.15 0 0 -5.36c-1.72,-0.19 -3.06,-0.57 -3.83,-1.53 -0.96,-1.15 -1.34,-2.3 -1.34,-4.02 0,-1.72 0.38,-3.64 0.77,-5.55l18.56 -91.48c1.91,-9.19 4.4,-13.4 9.57,-13.4 0.19,0 0.19,0 0.38,0l0 -5.36 -29.28 0 0 5.36c3.64,0 5.17,1.91 5.17,6.12 0,1.34 -0.19,3.45 -0.57,5.74l-13.59 73.88 -10.72 -73.88c-0.19,-1.91 -0.38,-4.02 -0.38,-5.93 0,-4.02 1.53,-5.93 4.78,-5.93 0.19,0 0.38,0 0.57,0l0 -5.36 -45.74 0 0 5.36c0.38,0 0.57,0 0.96,0 3.45,0 5.17,2.1 5.17,5.93 0,1.72 0,3.44 -0.38,5.17l-13.21 74.64 -10.72 -72.35c-0.38,-1.91 -0.38,-3.64 -0.38,-5.17 0,-5.74 2.49,-8.23 7.65,-8.23l0 -5.36 -42.3 0zm173.97 0l0 5.36c2.49,0 4.02,1.53 4.02,4.02 0,1.34 -0.77,4.02 -1.91,8.23l-23.92 82.11c-4.02,13.4 -6.32,20.86 -13.4,21.63l0 5.36 34.07 0 0 -5.36c-4.98,-0.38 -7.46,-2.68 -7.46,-7.65 0,-3.25 0.77,-6.32 1.53,-9l7.85 -28.9c22.77,0.77 38.47,17.42 38.47,36.56 0,6.12 -2.3,8.99 -6.7,8.99l0 5.36 49 0 0 -5.36c-6.12,-0.38 -7.46,-4.98 -9.76,-13.78l-23.16 -90.34c-0.77,-3.25 -1.34,-5.74 -1.34,-7.27 0,-2.87 1.34,-4.59 3.83,-4.59l0 -5.36 -51.1 0zm16.27 17.61l14.16 56.46c-6.13,-6.7 -14.55,-9.95 -25.65,-9.95 -0.38,0 -0.57,0 -0.96,0l12.44 -46.51zm71.2 -17.61l0 5.36c5.93,0.38 9,4.4 9,11.87l0 92.06c0,7.46 -3.06,11.67 -9,12.06l0 5.36 68.33 0c0.57,0 0.96,0 1.34,0 3.25,0 5.93,0.19 8.61,2.49l12.44 -52.63 -2.1 -0.38c-9,25.84 -22.58,39.23 -35.6,39.23 -8.42,0 -10.34,-4.78 -10.34,-14.93l0 -83.25c0,-7.46 2.87,-11.48 8.8,-11.87l0 -5.36 -51.48 0zm144.11 35.6l0 -10.91c0,-9.57 0.77,-13.97 11.87,-13.97 17.03,0 29.47,10.33 34.45,28.71l2.49 -0.38 -6.32 -42.3c-2.3,2.49 -5.55,3.25 -10.33,3.25l-74.83 0 0 5.36c5.93,0.38 9,4.4 9,11.87l0 92.06c0,7.46 -3.06,11.67 -9,12.06l0 5.36 71 0c8.42,0 13.59,0.19 16.08,3.25l12.82 -47.46 -1.91 -0.57c-10.72,22.77 -24.88,34.26 -42.11,34.26 -13.01,0 -13.21,-5.93 -13.21,-18.56l0 -50.91 4.98 0c13.59,0 20.67,5.74 23.35,19.52l2.3 0 -4.4 -44.59 -2.3 0c-0.96,9.95 -5.55,13.97 -15.69,13.97l-8.23 0zm68.13 -38.66l-6.51 41.18 2.1 0.57c4.98,-17.26 15.31,-26.64 30.24,-27.21l0 97.8c0,7.46 -3.06,11.67 -9,12.06l0 5.36 51.48 0 0 -5.36c-5.93,-0.38 -8.8,-4.4 -8.8,-12.06l0 -97.8c14.93,0.57 25.07,9.95 30.05,27.21l2.11 -0.57 -6.51 -41.18c-2.3,2.87 -4.98,3.06 -8.8,3.06l-67.56 0c-3.83,0 -6.51,-0.38 -8.8,-3.06zm-582.42 -1247.87c2.68,3.41 -0.75,-2.51 3.29,5.04l45.07 128.55c-9.91,-4.09 -26.12,-15.34 -38.85,-21.64 -15.53,-7.68 -27.52,-11.68 -45.68,-15.51l36.18 -96.44zm-81.5 86.97c-44.45,-4.83 -105.16,-21.1 -151.01,-30.1 -113.68,-22.32 -202.63,-38.57 -320.25,-44.63 -34.34,-1.77 -155.53,-8.15 -182.02,-2.37 42.65,24.13 108.7,43.9 157.53,65.21 125.76,54.89 251.1,116.69 350.79,211.55 8.82,8.4 48.53,48.41 51.14,60.21 -26.16,10.26 -447.43,23.93 -519.91,32.63 19.11,19.41 138.52,103.94 161.92,120.68 13.56,9.7 112.03,88.05 124.86,87.47 11.72,-0.52 44.19,-10.41 58.53,-13.09 -10.53,-16.81 -130.37,-98.59 -159.67,-120.27 -16.1,-11.91 -39.05,-27.17 -52.34,-39.58l416.97 -25.13c13.84,20.34 46.92,90.16 30.24,116.02 -38.34,59.46 -164.19,74.39 -231.42,90.2 -21.69,5.1 -43.71,10.06 -65.82,15.14 -21.25,4.89 -48.93,7.33 -65.33,16.79 37.98,2.6 78.71,2.01 116.31,5.08 17.34,1.42 58.7,37.45 73.26,48.2 -5.81,35.82 -83.06,305.27 -99.24,365.34 -5.42,20.12 -32.15,108.43 -31.66,121.2 60.16,-35.86 148.61,-97.6 208.81,-138.09 28.76,-19.34 195.06,-134.19 212.27,-139.17 73.73,44.78 142.89,93 216.06,137.82 22.17,13.58 197.85,130.37 219.5,138.84l-153.86 -485.07 20.77 -16.59c-7.71,-8.95 -33.46,-26.46 -47.02,-28.9 -11.06,7.37 -18.59,14.44 -28.95,21.04l124.29 392.56c-14.14,-4.4 -152.45,-95.36 -176.11,-110.73 -30.85,-20.03 -58.94,-37.58 -88.49,-56.48 -15.93,-10.19 -28.08,-18.64 -43.18,-28.06 -14.26,-8.89 -31.05,-20.92 -45.47,-27.92 -26.73,13.47 -251.48,166.71 -295.3,195.66 -12.68,8.38 -30.87,21.81 -43.76,27.56 5.98,-36.74 23.32,-87.22 33.77,-126.02 42.01,-156.08 12.3,-95.25 104.67,-214.56 17.67,-22.83 56.7,-64.62 70.93,-89.21 -10.69,-6.24 -31.3,-4.74 -43.29,-5.79 -16.23,-1.43 -31.78,-1.71 -47.19,-5.04 34.99,-12.76 70.65,-29.95 105.87,-44.45 35.35,-14.56 76.49,-29.58 99.58,-52.79 -5.07,-15.73 -40.59,-78.52 -50.99,-93.91 -115.91,-171.64 -325.15,-289.61 -519.78,-362.11 -26.85,-10 -84,-30.11 -111.22,-33.99 73.72,-12.06 245.72,7.93 319.35,25.23 132.49,31.12 125.01,59.97 175.08,82.52 74.32,33.47 162.66,7.94 240.82,105.51 36.57,45.66 81.15,101.59 142.49,120.41 20.88,6.41 52.28,10.17 76.88,10.47 14.39,0.18 29.1,-0.57 42.36,-3.15 13.39,-2.6 23.11,-7.86 36.45,-7.49l-7.89 6.36c-3.23,2.28 -5.6,3.76 -8.83,5.85 -39.94,25.9 -33.05,2.35 -51.59,44.34 -36.6,82.91 -55.65,99.19 -148.19,104.5 -15.82,0.91 -68.07,23.84 -84.44,36.1l-2.7 2.34c-0.28,0.24 -0.88,0.81 -1.3,1.24 13.24,7.93 35.62,9.12 51.88,12.19 21.35,4.03 33.59,8.52 50.88,14.03 63.86,-89.46 264.34,-67.15 293.7,-46.57 13.17,9.23 27.76,70.93 33.37,91.64 28.19,104.1 39.12,219.79 46.65,329.3 2.57,37.38 1.78,82.91 6.36,119.22 28.53,-92.91 -7.16,-300.2 -25.23,-404.89l-27.67 -124.69c16.53,-9.12 40.08,-29.76 56.63,-41.8 18.73,-13.63 36.76,-27.92 55.83,-42.34 12.63,-9.55 102.19,-72.29 111.28,-86.4l-319.42 -17.35c-5.94,8.05 -9.12,14.57 -14.02,21.58 -5.68,8.12 -11.6,11.84 -15.68,19.16l217.61 12.32c-21.27,15.79 -40.2,31.63 -61.54,47.44 -10.96,8.12 -20.62,15.37 -32.19,24.38 -9.71,7.55 -22.34,17.99 -32.83,23.59 -18.36,-6.65 -49.41,-34.55 -99.63,-50.19 -17.66,-5.5 -27.32,-3.71 -35.78,-15.77 -7.14,-10.17 -9.35,-26.23 -1.9,-36.88 4.35,-6.22 30.64,-15.98 45.36,-30.84 6.51,-6.57 6.3,-8.44 10.71,-13.77 7.04,-8.52 27.48,-9.27 38.97,-12.66l-23.73 -5.1 28.52 -9.89c-31.93,-10.07 -24.18,1.07 -50.48,-19.41 -57.48,-44.75 -102.94,21.9 -172.14,20.14l-165.52 -471.01 -83.27 225.18z"/>
 </g>
</svg>
